<svg width="200" height="200" viewBox="0 0 200 200" fill="none" xmlns="http://www.w3.org/2000/svg">
  <rect width="200" height="200" rx="100" fill="#f2ebe0"/>
  <path d="M100 55C86.1929 55 75 66.1929 75 80C75 93.8071 86.1929 105 100 105C113.807 105 125 93.8071 125 80C125 66.1929 113.807 55 100 55ZM100 115C76.5279 115 56.4021 128.532 45.498 149.07C45.298 149.46 45.16 149.88 45.06 150.31C44.76 151.7 46 153 47.45 153H152.55C154 153 155.24 151.7 154.94 150.31C154.84 149.88 154.702 149.46 154.502 149.07C143.598 128.532 123.472 115 100 115Z" fill="#8d5a44"/>
</svg>
