<svg width="200" height="200" viewBox="0 0 200 200" fill="none" xmlns="http://www.w3.org/2000/svg">
  <circle cx="100" cy="100" r="100" fill="#f2ebe0"/>
  <path d="M100 0C44.7715 0 0 44.7715 0 100C0 155.228 44.7715 200 100 200C155.228 200 200 155.228 200 100C200 44.7715 155.228 0 100 0ZM100 48C117.673 48 132 62.3269 132 80C132 97.6731 117.673 112 100 112C82.3269 112 68 97.6731 68 80C68 62.3269 82.3269 48 100 48ZM100 178C73.4315 178 50.0538 164.562 36.4 143.938C36.8 122.9 78.8 120 100 120C121.2 120 163.2 122.9 163.6 143.938C149.946 164.562 126.569 178 100 178Z" fill="#8d5a44"/>
</svg>
